<svg xmlns="http://www.w3.org/2000/svg" version="1.1" xmlns:xlink="http://www.w3.org/1999/xlink" xmlns:svgjs="http://svgjs.dev/svgjs" width="2000" height="297" viewBox="0 0 2000 297"><g transform="matrix(1,0,0,1,-1.2121212121212466,-0.5195720533179724)"><svg viewBox="0 0 396 59" data-background-color="#ffffff" preserveAspectRatio="xMidYMid meet" height="297" width="2000" xmlns="http://www.w3.org/2000/svg" xmlns:xlink="http://www.w3.org/1999/xlink"><g id="tight-bounds" transform="matrix(1,0,0,1,0.2400000000000091,0.10321465032242827)"><svg viewBox="0 0 395.52 58.77744268543275" height="58.77744268543275" width="395.52"><g><svg viewBox="0 0 395.52 58.77744268543275" height="58.77744268543275" width="395.52"><g><svg viewBox="0 0 500.13879837459376 74.32463480032335" height="58.77744268543275" width="395.52"><g><rect width="4.849979934382253" height="64.53658593371058" x="87.07253588947266" y="4.8940244333063845" fill="#000000" opacity="1" stroke-width="0" stroke="transparent" fill-opacity="1" class="rect-qz-0" data-fill-palette-color="primary" rx="1%" id="qz-0" data-palette-color="#4b91f1"></rect></g><g transform="matrix(1,0,0,1,104.6187983745938,10.272073261115601)"><svg viewBox="0 0 395.52 53.78048827809215" height="53.78048827809215" width="395.52"><g id="textblocktransform"><svg viewBox="0 0 395.52 53.78048827809215" height="53.78048827809215" width="395.52" id="textblock"><g><svg viewBox="0 0 395.52 53.78048827809215" height="53.78048827809215" width="395.52"><g transform="matrix(1,0,0,1,0,0)"><svg width="395.52" viewBox="2.25 -41.5 309.23 42.05" height="53.78048827809215" data-palette-color="#4b91f1"><path d="M13-35.5L13-21.15Q15.7-21.15 17.53-21.48 19.35-21.8 20.43-22.5 21.5-23.2 21.98-24.3 22.45-25.4 22.45-26.9L22.45-26.9 24.2-26.9 24.2-13.25 22.45-13.25Q22.45-14.75 22.03-15.85 21.6-16.95 20.53-17.68 19.45-18.4 17.63-18.78 15.8-19.15 13-19.15L13-19.15 13-7.85Q13-6.2 13.4-5.13 13.8-4.05 14.78-3.38 15.75-2.7 17.35-2.43 18.95-2.15 21.3-2.15L21.3-2.15Q23.95-2.15 25.8-2.53 27.65-2.9 28.9-3.8 30.15-4.7 30.9-6.18 31.65-7.65 32.15-9.85L32.15-9.85 34.05-9.85 33.3 0 2.25 0 2.25-1.9Q4-1.95 5.08-2.2 6.15-2.45 6.75-3.05 7.35-3.65 7.55-4.75 7.75-5.85 7.75-7.6L7.75-7.6 7.75-30.9Q7.75-32.65 7.58-33.73 7.4-34.8 6.88-35.43 6.35-36.05 5.35-36.27 4.35-36.5 2.75-36.6L2.75-36.6 2.75-38.5 31.65-38.5 32.1-29.7 30.35-29.7Q30.05-31.7 29.38-32.98 28.7-34.25 27.53-35 26.35-35.75 24.55-36.05 22.75-36.35 20.2-36.35L20.2-36.35 13.85-36.35Q13-36.35 13-35.5L13-35.5ZM59.45-13.6L59.45-18.5Q59.45-20.55 59.35-21.73 59.25-22.9 58.82-23.53 58.4-24.15 57.57-24.38 56.75-24.6 55.3-24.75L55.3-24.75 55.3-26.5 64.35-26.5 64.35-11.15Q64.35-8.3 64.42-6.5 64.5-4.7 64.65-3.8L64.65-3.8Q64.75-3.15 64.97-2.78 65.2-2.4 65.65-2.18 66.1-1.95 66.82-1.88 67.55-1.8 68.7-1.8L68.7-1.8 68.7-0.05 60.45 0.55 59.9-5.45 59.7-5.45Q57.8-2.35 55.32-0.93 52.85 0.5 50.15 0.5L50.15 0.5Q48.05 0.5 46.07-0.3 44.1-1.1 43.1-2.45L43.1-2.45Q42.25-3.55 41.87-5.5 41.5-7.45 41.5-10.55L41.5-10.55 41.5-18.5Q41.5-20.55 41.4-21.73 41.3-22.9 40.87-23.53 40.45-24.15 39.62-24.38 38.8-24.6 37.35-24.75L37.35-24.75 37.35-26.5 46.4-26.5 46.4-12.85Q46.4-7.4 47.67-4.95 48.95-2.5 51.75-2.5L51.75-2.5Q56.15-2.5 58.6-8.25L58.6-8.25Q58.85-8.85 59-9.35 59.15-9.85 59.25-10.45 59.35-11.05 59.4-11.8 59.45-12.55 59.45-13.6L59.45-13.6ZM93.6-5.6L95.1-4.15Q93.3-1.95 90.45-0.73 87.6 0.5 84.3 0.5L84.3 0.5Q81.65 0.5 79.42-0.48 77.2-1.45 75.6-3.23 74-5 73.12-7.5 72.25-10 72.25-13.05L72.25-13.05Q72.25-16.25 73.25-18.82 74.25-21.4 76.07-23.23 77.9-25.05 80.47-26.03 83.05-27 86.15-27L86.15-27Q88.1-27 89.7-26.68 91.3-26.35 92.47-25.78 93.65-25.2 94.3-24.38 94.95-23.55 94.95-22.6L94.95-22.6Q94.95-21.6 94.3-21.05 93.65-20.5 92.5-20.5L92.5-20.5Q91.6-20.5 91-20.88 90.4-21.25 89.45-22.55L89.45-22.55Q88.45-23.7 87.52-24.18 86.6-24.65 85.15-24.65L85.15-24.65Q81.6-24.65 79.77-21.9 77.95-19.15 77.95-13.8L77.95-13.8Q77.95-8.05 79.97-5.08 82-2.1 85.9-2.1L85.9-2.1Q88-2.1 89.85-2.93 91.7-3.75 93.6-5.6L93.6-5.6ZM107.04-41.5L107.04-7.8Q107.04-5.9 107.19-4.75 107.34-3.6 107.82-2.95 108.29-2.3 109.17-2.05 110.04-1.8 111.49-1.75L111.49-1.75 111.49 0 97.69 0 97.69-1.75Q99.19-1.8 100.09-2.08 100.99-2.35 101.52-2.95 102.04-3.55 102.22-4.63 102.39-5.7 102.39-7.45L102.39-7.45 102.39-29Q102.39-31.7 102.32-33.52 102.24-35.35 102.09-36L102.09-36Q101.84-37.15 100.92-37.55 99.99-37.95 97.59-37.95L97.59-37.95 97.59-39.65 107.04-41.5ZM124.24-27L124.24-7.95Q124.24-6 124.42-4.83 124.59-3.65 125.09-2.98 125.59-2.3 126.49-2.05 127.39-1.8 128.89-1.75L128.89-1.75 128.89 0 114.54 0 114.54-1.75Q116.04-1.8 116.99-2.08 117.94-2.35 118.47-2.98 118.99-3.6 119.17-4.73 119.34-5.85 119.34-7.6L119.34-7.6 119.34-14Q119.34-16.9 119.27-18.78 119.19-20.65 118.99-21.35L118.99-21.35Q118.74-22.5 117.84-22.93 116.94-23.35 114.44-23.35L114.44-23.35 114.44-25.1 124.24-27ZM118.49-37.15L118.49-37.15Q118.49-38.45 119.39-39.35 120.29-40.25 121.59-40.25L121.59-40.25Q122.89-40.25 123.79-39.35 124.69-38.45 124.69-37.15L124.69-37.15Q124.69-35.85 123.79-34.95 122.89-34.05 121.59-34.05L121.59-34.05Q120.29-34.05 119.39-34.95 118.49-35.85 118.49-37.15ZM154.09 0.5L154.09-4.2 153.89-4.2Q152.09-1.65 150.06-0.58 148.04 0.5 145.29 0.5L145.29 0.5Q142.44 0.5 140.06-0.53 137.69-1.55 135.96-3.38 134.24-5.2 133.26-7.75 132.29-10.3 132.29-13.3L132.29-13.3Q132.29-16.25 133.26-18.78 134.24-21.3 135.96-23.13 137.69-24.95 140.09-25.98 142.49-27 145.29-27L145.29-27Q147.69-27 149.56-26.2 151.44-25.4 153.19-23.65L153.19-23.65 153.19-28.75Q153.19-31.6 153.11-33.5 153.04-35.4 152.89-36.1L152.89-36.1Q152.64-37.2 151.49-37.65 150.34-38.1 147.74-38.1L147.74-38.1 147.74-39.6 157.99-41.5 157.99-12.65Q157.99-9.2 158.04-6.98 158.09-4.75 158.34-3.8L158.34-3.8Q158.49-3.2 158.71-2.8 158.94-2.4 159.36-2.18 159.79-1.95 160.51-1.85 161.24-1.75 162.39-1.75L162.39-1.75 162.39-0.05 154.09 0.5ZM153.09-11.95L153.09-15.25Q153.09-17.85 152.81-19.2 152.54-20.55 151.74-21.55L151.74-21.55Q150.59-23.05 148.81-23.83 147.04-24.6 145.29-24.6L145.29-24.6Q141.69-24.6 139.81-21.63 137.94-18.65 137.94-13.55L137.94-13.55Q137.94-10.9 138.41-8.75 138.89-6.6 139.81-5.08 140.74-3.55 142.11-2.73 143.49-1.9 145.29-1.9L145.29-1.9Q146.19-1.9 147.11-2.1 148.04-2.3 148.91-2.73 149.79-3.15 150.54-3.73 151.29-4.3 151.79-5.05L151.79-5.05Q152.49-6.15 152.79-7.7 153.09-9.25 153.09-11.95L153.09-11.95ZM188.19-6.05L189.74-4.65Q185.49 0.5 179.19 0.5L179.19 0.5Q176.24 0.5 173.84-0.48 171.44-1.45 169.71-3.23 167.99-5 167.04-7.48 166.09-9.95 166.09-12.95L166.09-12.95Q166.09-16 167.09-18.6 168.09-21.2 169.91-23.05 171.74-24.9 174.26-25.95 176.79-27 179.79-27L179.79-27Q184.64-27 187.29-24.38 189.94-21.75 189.94-16.85L189.94-16.85Q189.94-16.15 189.66-16 189.39-15.85 188.39-15.85L188.39-15.85 171.94-15.85Q171.84-15.45 171.79-14.88 171.74-14.3 171.74-13.6L171.74-13.6Q171.74-11 172.36-8.88 172.99-6.75 174.16-5.25 175.34-3.75 176.96-2.93 178.59-2.1 180.59-2.1L180.59-2.1Q182.69-2.1 184.49-3.03 186.29-3.95 188.19-6.05L188.19-6.05ZM172.29-18.15L181.49-18.15Q182.49-18.15 183.09-18.2 183.69-18.25 183.99-18.4 184.29-18.55 184.39-18.82 184.49-19.1 184.49-19.55L184.49-19.55Q184.49-21.85 183.01-23.23 181.54-24.6 178.99-24.6L178.99-24.6Q173.59-24.6 172.29-18.15L172.29-18.15ZM209.73-10.85L209.73-14.8Q206.88-13.7 204.91-12.65 202.93-11.6 201.73-10.55 200.53-9.5 200.01-8.45 199.48-7.4 199.48-6.3L199.48-6.3Q199.48-4.65 200.58-3.6 201.68-2.55 203.48-2.55L203.48-2.55Q204.78-2.55 205.91-3.2 207.03-3.85 207.88-4.98 208.73-6.1 209.23-7.63 209.73-9.15 209.73-10.85L209.73-10.85ZM202.53-13.8L209.73-16.95 209.73-19Q209.73-25.1 204.53-25.1L204.53-25.1Q203.68-25.1 203.08-24.95 202.48-24.8 202.08-24.45 201.68-24.1 201.36-23.45 201.03-22.8 200.73-21.85L200.73-21.85Q200.18-20.4 199.66-19.93 199.13-19.45 198.13-19.45L198.13-19.45Q195.63-19.45 195.63-21.95L195.63-21.95Q195.63-24.35 198.18-25.68 200.73-27 205.43-27L205.43-27Q210.43-27 212.53-25.23 214.63-23.45 214.63-19.2L214.63-19.2 214.63-8Q214.63-2.3 216.88-2.3L216.88-2.3Q217.58-2.3 218.23-2.48 218.88-2.65 219.33-3.4L219.33-3.4 220.03-2.2Q219.43-1.05 217.83-0.28 216.23 0.5 214.48 0.5L214.48 0.5Q212.28 0.5 211.21-0.9 210.13-2.3 210.13-4.85L210.13-4.85 209.88-4.85Q208.58-2.4 206.28-0.98 203.98 0.45 201.18 0.45L201.18 0.45Q198.03 0.45 196.23-1.15 194.43-2.75 194.43-5.45L194.43-5.45Q194.43-6.65 194.86-7.75 195.28-8.85 196.23-9.85 197.18-10.85 198.73-11.83 200.28-12.8 202.53-13.8L202.53-13.8ZM230.78-14.55L230.78-7.85Q230.78-5.8 230.88-4.63 230.98-3.45 231.41-2.83 231.83-2.2 232.66-2 233.48-1.8 234.93-1.7L234.93-1.7 234.93 0 221.83 0 221.83-1.7Q223.23-1.8 224.06-2 224.88-2.2 225.33-2.8 225.78-3.4 225.91-4.5 226.03-5.6 226.03-7.5L226.03-7.5 226.03-14.15Q226.03-20.1 225.73-21.4L225.73-21.4Q225.58-22.05 225.36-22.48 225.13-22.9 224.68-23.13 224.23-23.35 223.53-23.43 222.83-23.5 221.73-23.5L221.73-23.5 221.73-25.1 229.73-27 230.33-22.05 230.53-22.05Q232.43-24.4 234.98-25.7 237.53-27 240.53-27L240.53-27Q242.83-27 244.73-26.25 246.63-25.5 247.63-24.2L247.63-24.2Q248.48-23.05 248.83-21.23 249.18-19.4 249.18-16.2L249.18-16.2 249.18-7.85Q249.18-5.8 249.31-4.63 249.43-3.45 249.83-2.83 250.23-2.2 251.06-2 251.88-1.8 253.23-1.7L253.23-1.7 253.23 0 240.28 0 240.28-1.7Q241.68-1.75 242.51-1.98 243.33-2.2 243.76-2.8 244.18-3.4 244.31-4.53 244.43-5.65 244.43-7.5L244.43-7.5 244.43-14.1Q244.43-16.95 244.13-18.9 243.83-20.85 243.16-22.05 242.48-23.25 241.38-23.78 240.28-24.3 238.73-24.3L238.73-24.3Q236.48-24.3 234.61-23.13 232.73-21.95 231.68-19.9L231.68-19.9Q231.43-19.4 231.26-18.95 231.08-18.5 230.98-17.9 230.88-17.3 230.83-16.53 230.78-15.75 230.78-14.55L230.78-14.55ZM280.88-8.55L278.83-13.95 265.48-13.95Q264.63-11.9 264.03-10.33 263.43-8.75 263.05-7.6 262.68-6.45 262.53-5.65 262.38-4.85 262.38-4.35L262.38-4.35Q262.38-2.95 263.28-2.43 264.18-1.9 266.28-1.9L266.28-1.9 266.28 0 254.13 0 254.13-1.9Q255.28-2.05 256.1-2.3 256.93-2.55 257.55-3 258.18-3.45 258.65-4.17 259.13-4.9 259.58-5.95L259.58-5.95 272.58-38.5 274.73-38.5 286.08-10.3Q287.23-7.5 288.08-5.83 288.93-4.15 289.73-3.3 290.53-2.45 291.45-2.2 292.38-1.95 293.68-1.95L293.68-1.95 293.68 0 277.38 0 277.38-1.95Q280.03-1.95 281.03-2.45 282.03-2.95 282.03-4.1L282.03-4.1Q282.03-4.6 281.98-5.03 281.93-5.45 281.8-5.95 281.68-6.45 281.45-7.08 281.23-7.7 280.88-8.55L280.88-8.55ZM272.33-31.2L266.48-16.45 277.88-16.45 272.33-31.2ZM306.03-29.05L306.03-9.45Q306.03-6.95 306.23-5.5 306.43-4.05 307-3.25 307.58-2.45 308.65-2.2 309.73-1.95 311.48-1.9L311.48-1.9 311.48 0 295.28 0 295.28-1.9Q297.03-1.95 298.1-2.23 299.18-2.5 299.78-3.25 300.38-4 300.58-5.38 300.78-6.75 300.78-9.1L300.78-9.1 300.78-29.4Q300.78-31.5 300.6-32.88 300.43-34.25 299.9-35.05 299.38-35.85 298.38-36.18 297.38-36.5 295.78-36.6L295.78-36.6 295.78-38.5 310.98-38.5 310.98-36.6Q309.38-36.55 308.4-36.2 307.43-35.85 306.9-35.02 306.38-34.2 306.2-32.75 306.03-31.3 306.03-29.05L306.03-29.05Z" opacity="1" transform="matrix(1,0,0,1,0,0)" fill="#000000" class="wordmark-text-0" data-fill-palette-color="primary" id="text-0"></path></svg></g></svg></g></svg></g></svg></g><g><svg viewBox="0 0 74.37625333873378 74.32463480032335" height="74.32463480032335" width="74.37625333873378"><g><svg xmlns="http://www.w3.org/2000/svg" viewBox="11.246326241847585 4.25 48.503673758152416 48.470011283443874" x="0" y="0" height="74.32463480032335" width="74.37625333873378" class="icon-icon-0" data-fill-palette-color="accent" id="icon-0"><g data-name="filled outline" fill="#4b91f1" data-fill-palette-color="accent"><path d="M32 11.75A3.75 3.75 0 1 1 35.75 8 3.75 3.75 0 0 1 32 11.75Zm0-6A2.25 2.25 0 1 0 34.25 8 2.25 2.25 0 0 0 32 5.75Z" fill="#000000" data-fill-palette-color="accent"></path><path d="M56 35.75A3.75 3.75 0 1 1 59.75 32 3.75 3.75 0 0 1 56 35.75Zm0-6A2.25 2.25 0 1 0 58.25 32 2.25 2.25 0 0 0 56 29.75Z" fill="#000000" data-fill-palette-color="accent"></path><path d="M17.15 47.6a0.74 0.74 0 0 1-0.53-0.22 0.75 0.75 0 0 1 0-1.06L31.47 31.47a0.75 0.75 0 0 1 1.06 1.06L17.68 47.38A0.74 0.74 0 0 1 17.15 47.6Z" fill="#000000" data-fill-palette-color="accent"></path><path d="M15 52.72a3.75 3.75 0 1 1 2.65-1.1A3.72 3.72 0 0 1 15 52.72Zm0-6a2.23 2.23 0 0 0-1.59 0.66 2.25 2.25 0 0 0 0 3.18 2.3 2.3 0 0 0 3.18 0A2.25 2.25 0 0 0 15 46.72Z" fill="#000000" data-fill-palette-color="accent"></path><path d="M42 32.75a0.76 0.76 0 0 1-0.75-0.75V22.75H32a0.75 0.75 0 0 1 0-1.5H42a0.76 0.76 0 0 1 0.75 0.75V32A0.76 0.76 0 0 1 42 32.75Z" fill="#000000" data-fill-palette-color="accent"></path><path d="M42 32.75H32a0.76 0.76 0 0 1-0.75-0.75V22a0.75 0.75 0 0 1 1.5 0v9.25H42a0.75 0.75 0 0 1 0 1.5Z" fill="#000000" data-fill-palette-color="accent"></path><path d="M31.4 45.74a0.75 0.75 0 0 1-0.72-0.78h0a0.75 0.75 0 0 1 0.78-0.72h0a0.74 0.74 0 0 1 0.72 0.78h0a0.76 0.76 0 0 1-0.75 0.72h0Zm2.28-0.83a0.75 0.75 0 0 1 0.6-0.87h0a0.75 0.75 0 0 1 0.87 0.6h0a0.74 0.74 0 0 1-0.6 0.87h0l-0.14 0h0A0.76 0.76 0 0 1 33.68 44.91Zm-5.41 0.33h0a0.76 0.76 0 0 1-0.52-0.93h0a0.76 0.76 0 0 1 0.93-0.52h0a0.76 0.76 0 0 1 0.52 0.93h0a0.77 0.77 0 0 1-0.73 0.55h0Zm8.31-1.05a0.76 0.76 0 0 1 0.39-1h0a0.75 0.75 0 0 1 1 0.38h0a0.76 0.76 0 0 1-0.38 1h0a0.7 0.7 0 0 1-0.31 0.07h0A0.76 0.76 0 0 1 36.58 44.19ZM25.34 44h0a0.75 0.75 0 0 1-0.29-1h0a0.75 0.75 0 0 1 1-0.29h0a0.75 0.75 0 0 1 0.29 1h0a0.73 0.73 0 0 1-0.65 0.39h0A0.71 0.71 0 0 1 25.34 44Zm13.91-1.21a0.75 0.75 0 0 1 0.14-1h0a0.75 0.75 0 0 1 1 0.14h0A0.74 0.74 0 0 1 40.3 43h0a0.71 0.71 0 0 1-0.45 0.16h0A0.77 0.77 0 0 1 39.25 42.82Zm-16.48-0.63a0.75 0.75 0 0 1-0.05-1.06h0a0.75 0.75 0 0 1 1.06-0.05h0a0.76 0.76 0 0 1 0 1.06h0a0.76 0.76 0 0 1-0.56 0.24h0A0.73 0.73 0 0 1 22.77 42.19Zm18.76-1.32a0.75 0.75 0 0 1-0.1-1h0a0.76 0.76 0 0 1 1.06-0.1h0a0.76 0.76 0 0 1 0.1 1.06h0a0.79 0.79 0 0 1-0.58 0.27h0A0.74 0.74 0 0 1 41.53 40.87ZM20.68 39.81a0.75 0.75 0 0 1 0.19-1h0a0.76 0.76 0 0 1 1.05 0.19h0a0.75 0.75 0 0 1-0.19 1h0a0.75 0.75 0 0 1-0.43 0.13h0A0.75 0.75 0 0 1 20.68 39.81Zm22.63-1.35a0.76 0.76 0 0 1-0.34-1h0a0.75 0.75 0 0 1 1-0.33h0a0.74 0.74 0 0 1 0.33 1h0a0.73 0.73 0 0 1-0.67 0.42h0A0.8 0.8 0 0 1 43.31 38.46ZM19.2 37a0.73 0.73 0 0 1 0.42-1h0a0.74 0.74 0 0 1 1 0.42h0a0.75 0.75 0 0 1-0.42 1h0a0.71 0.71 0 0 1-0.28 0.06h0A0.74 0.74 0 0 1 19.2 37ZM44.49 35.7a0.73 0.73 0 0 1-0.56-0.9h0a0.75 0.75 0 0 1 0.9-0.56h0a0.76 0.76 0 0 1 0.56 0.9h0a0.75 0.75 0 0 1-0.73 0.58h0A0.47 0.47 0 0 1 44.49 35.7ZM18.39 34h0a0.75 0.75 0 0 1 0.63-0.85h0a0.75 0.75 0 0 1 0.85 0.64h0a0.73 0.73 0 0 1-0.63 0.84h-0.11A0.74 0.74 0 0 1 18.39 34Zm25.86-2a0.76 0.76 0 0 1 0.75-0.75h0a0.76 0.76 0 0 1 0.75 0.75h0a0.75 0.75 0 0 1-0.75 0.75h0A0.76 0.76 0 0 1 44.25 32ZM19 31.61a0.76 0.76 0 0 1-0.68-0.82h0a0.76 0.76 0 0 1 0.82-0.68h0a0.76 0.76 0 0 1 0.68 0.81h0a0.76 0.76 0 0 1-0.75 0.69H19Zm0.44-3a0.75 0.75 0 0 1-0.48-0.95h0a0.75 0.75 0 0 1 0.95-0.47h0a0.74 0.74 0 0 1 0.47 0.94h0a0.75 0.75 0 0 1-0.71 0.52h0A0.59 0.59 0 0 1 19.42 28.64Zm1.1-2.79a0.74 0.74 0 0 1-0.25-1h0a0.76 0.76 0 0 1 1-0.25h0a0.75 0.75 0 0 1 0.25 1h0a0.73 0.73 0 0 1-0.64 0.36h0A0.68 0.68 0 0 1 20.52 25.85Zm1.71-2.46a0.75 0.75 0 0 1 0-1.06h0a0.75 0.75 0 0 1 1.06 0h0a0.76 0.76 0 0 1 0 1.07h0a0.79 0.79 0 0 1-0.53 0.22h0A0.74 0.74 0 0 1 22.23 23.39Zm2.23-2a0.74 0.74 0 0 1 0.23-1h0a0.75 0.75 0 0 1 1 0.24h0a0.74 0.74 0 0 1-0.23 1h0a0.72 0.72 0 0 1-0.4 0.12h0A0.74 0.74 0 0 1 24.46 21.38Zm2.62-1.44a0.75 0.75 0 0 1 0.47-1h0a0.74 0.74 0 0 1 0.95 0.46h0a0.75 0.75 0 0 1-0.47 1h0a1 1 0 0 1-0.24 0h0A0.76 0.76 0 0 1 27.08 19.94Zm2.89-0.8a0.75 0.75 0 0 1 0.67-0.82h0a0.75 0.75 0 0 1 0.82 0.67h0a0.75 0.75 0 0 1-0.67 0.82h-0.07A0.75 0.75 0 0 1 30 19.14Z" fill="#000000" data-fill-palette-color="accent"></path><path d="M32 32.75a0.76 0.76 0 0 1-0.75-0.75V11a0.75 0.75 0 0 1 1.5 0V32A0.76 0.76 0 0 1 32 32.75Z" fill="#000000" data-fill-palette-color="accent"></path><path d="M53 32.75H32a0.75 0.75 0 0 1 0-1.5H53a0.75 0.75 0 0 1 0 1.5Z" fill="#000000" data-fill-palette-color="accent"></path></g></svg></g></svg></g></svg></g></svg></g><defs></defs></svg><rect width="395.52" height="58.77744268543275" fill="none" stroke="none" visibility="hidden"></rect></g></svg></g></svg>
